<?xml version="1.0" encoding="utf-8"?>
<!-- Generator: Adobe Illustrator 19.2.1, SVG Export Plug-In . SVG Version: 6.00 Build 0)  -->
<svg version="1.1" id="Layer_1" xmlns="http://www.w3.org/2000/svg" xmlns:xlink="http://www.w3.org/1999/xlink" x="0px" y="0px"
	 viewBox="0 0 24 24" style="enable-background:new 0 0 24 24;" xml:space="preserve">
<path d="M22.3,9.4C21.9,6.6,20,6.5,20,6.5h-2.5c-0.5,0-0.7-0.3-0.7-0.3c0-0.1-0.1-0.1-0.1-0.1l0.1,0c0.1-0.1,1.3-1.9,0.8-3.4
	c-0.3-0.8-1-1.4-2.2-1.7c-0.2-0.1-2.5-1.2-4.4-0.8C10.9,0.2,9.8,0,8.6,0c0,0,0,0,0,0c-1.7,0-3,0.4-3.7,1.2c-0.2,0-1.5,0.2-1.6,1.3
	C2.7,2.9,2.8,3.6,2.8,3.6C3,6.9,3.2,9.8,3.3,12.1c0.3,7.6-0.2,10.5-0.2,10.5c-0.1,0.8,1.1,0.9,1.1,0.9c6.2,1,10.8,0,10.8,0
	c1.7-0.1,1.5-0.9,1.5-0.9l-0.1-1.3c-0.1-0.9,0.4-0.9,0.4-0.9c4.6-0.5,5.5-5.2,5.7-8.3C22.4,10.5,22.3,9.4,22.3,9.4z M15.1,6.3
	c0.3,3.8-0.7,3.2-0.7,3.2c-0.6-0.4-0.4-1.9-0.4-1.9c0.1-1,0-2.1-0.2-2.2c-0.8-1.1-1,0.9-1,0.9c-0.1,3.7-0.8,2.5-0.8,2.5
	c-0.5-0.7-0.3-2.9-0.3-2.9c0-1.7-1-1.5-1-1.5C8.5,4.6,7.2,3.6,7.2,3.6C5.8,3.9,3,3.6,3,3.6s-0.2-0.7,0.5-1c0,0,0,0,0,0
	C3.6,1.5,5,1.4,5,1.4l0,0l0,0c1.6-1.9,5.9-1,6-1l0,0l0,0c1.8-0.5,4.3,0.7,4.3,0.7l0,0c1.1,0.3,1.8,0.9,2.1,1.6
	c0.5,1.4-0.6,3.1-0.7,3.2C15.1,4,15.1,6.3,15.1,6.3z M21,12.1c0,0.7-0.1,1.1-0.1,1.1c-1,5.2-3.8,5.5-3.8,5.5c-0.3,0.1-0.8,0-1-0.5
	c0-0.1,0-0.2,0-0.3c0-1,0.1-3.7,0.2-5.9c0.1-1.8,0.2-3.2,0.2-3.2c0-0.9,0.8-0.8,0.8-0.8c0.4-0.1,2.6,0,2.6,0
	C21,8.5,21.1,10.7,21,12.1z"/>
</svg>
