<?xml version="1.0" encoding="utf-8"?>
<!-- Generator: Adobe Illustrator 19.2.1, SVG Export Plug-In . SVG Version: 6.00 Build 0)  -->
<svg version="1.1" id="Layer_1" xmlns="http://www.w3.org/2000/svg" xmlns:xlink="http://www.w3.org/1999/xlink" x="0px" y="0px"
	 viewBox="0 0 24 24" style="enable-background:new 0 0 24 24;" xml:space="preserve">
<g>
	<path d="M13.5,12.8c0.4-0.4,0.7-1,0.8-1.3c0.1-0.2,0.1-0.4,0.1-0.6c0.2-0.1,0.3-0.2,0.4-0.4c0.1-0.3,0.2-0.8,0.2-0.8
		c0-0.4-0.1-0.7-0.1-0.7C15,7.2,14.4,6.8,14,6.8c-0.1,0-0.3-0.1-0.4-0.2c-0.2-0.2-0.3-0.5-0.7-0.5c-0.1,0-0.3,0-0.4-0.1
		c-0.1-0.1-0.3-0.3-0.5-0.3c-0.1,0-0.3,0.1-0.5,0.2c-0.1,0.1-0.3,0.1-0.4,0.1c-0.4,0-0.5,0.2-0.7,0.5c-0.1,0.1-0.3,0.2-0.4,0.2
		C9.6,6.8,9,7.2,9.2,9c0,0-0.2,0.3-0.1,0.7c0,0,0.1,0.6,0.2,0.8c0.1,0.2,0.2,0.3,0.4,0.4c0,0.2,0.1,0.4,0.1,0.6
		c0.1,0.3,0.4,0.9,0.8,1.3h0c-0.1,2.5-5.3,1.1-4.2,5.6c0.4,1.3,4.9,1.5,5.6,1.5c0.7,0,5.3-0.2,5.6-1.5
		C18.8,13.9,13.5,15.3,13.5,12.8z"/>
	<path d="M19.8,10.9c0.4-0.4,0.7-0.9,0.7-1.2c0.1-0.2,0.1-0.4,0.1-0.6c0.2-0.1,0.3-0.2,0.4-0.4C21.2,8.5,21.2,8,21.2,8
		c0-0.4-0.1-0.7-0.1-0.7c0.2-1.7-0.4-2.1-0.7-2.1c-0.1,0-0.3-0.1-0.4-0.2c-0.2-0.2-0.3-0.5-0.7-0.5c-0.1,0-0.3,0-0.4-0.1
		c-0.1-0.1-0.3-0.2-0.5-0.2S18.1,4.3,18,4.4c-0.1,0.1-0.3,0.1-0.4,0.1c-0.4,0-0.4,0.2-0.7,0.5c-0.1,0.1-0.3,0.1-0.4,0.2
		c-0.4,0.1-0.9,0.4-0.7,2.1c0,0-0.2,0.3-0.1,0.7c0,0,0.1,0.6,0.2,0.8c0.1,0.2,0.2,0.3,0.4,0.4c0,0.2,0.1,0.4,0.1,0.6
		c0.1,0.3,0.4,0.8,0.8,1.2h0c0,1.3-1.5,1.5-2.7,2.1c0.2,0.3,0.5,0.5,1.4,0.8c1.3,0.5,3.2,1.3,2.9,3.9c1,0,5-0.2,5.3-1.4
		C24.9,12,19.9,13.3,19.8,10.9z"/>
	<path d="M8.3,13.9c0.8-0.3,1.2-0.5,1.4-0.8C8.5,12.5,7,12.3,7,11h0c0.4-0.4,0.7-0.9,0.8-1.2c0.1-0.2,0.1-0.4,0.1-0.6
		C8,9.1,8.2,8.9,8.2,8.8C8.3,8.5,8.4,8,8.4,8c0-0.4-0.1-0.7-0.1-0.7c0.2-1.7-0.4-2.1-0.7-2.1C7.4,5.1,7.2,5.1,7.1,5
		C6.9,4.7,6.8,4.5,6.4,4.5c-0.1,0-0.3,0-0.4-0.1C5.9,4.3,5.7,4.1,5.6,4.1c-0.1,0-0.3,0.1-0.5,0.2C5,4.5,4.9,4.5,4.7,4.5
		C4.4,4.5,4.3,4.7,4.1,5C4,5.1,3.8,5.1,3.7,5.1C3.3,5.2,2.7,5.5,2.9,7.3c0,0-0.2,0.3-0.1,0.7c0,0,0.1,0.6,0.2,0.8
		C3,8.9,3.1,9.1,3.3,9.2c0,0.2,0.1,0.4,0.1,0.6c0.1,0.3,0.4,0.8,0.8,1.2c-0.1,2.4-5.1,1.1-4,5.4c0.3,1.2,4.4,1.4,5.3,1.4
		C5.2,15.2,7.1,14.4,8.3,13.9z"/>
</g>
</svg>
