<?xml version="1.0" encoding="utf-8"?>
<!-- Generator: Adobe Illustrator 19.2.1, SVG Export Plug-In . SVG Version: 6.00 Build 0)  -->
<svg version="1.1" id="Layer_1" xmlns="http://www.w3.org/2000/svg" xmlns:xlink="http://www.w3.org/1999/xlink" x="0px" y="0px"
	 viewBox="0 0 24 24" style="enable-background:new 0 0 24 24;" xml:space="preserve">
<path d="M18.9,1.2C18.9,0.5,15.8,0,12,0S5.1,0.5,5.1,1.2c0,0,0,0,0,0.1l2.1,13.9c0,0,0.3,3.1,0.3,4.1c0,1,0,3.5,0,3.5l0,0
	c0,0.7,2,1.2,4.5,1.2s4.5-0.6,4.5-1.2l0,0c0,0,0-2.5,0-3.5c0-1,0.3-4.1,0.3-4.1L18.9,1.2z"/>
</svg>
