<?xml version="1.0" encoding="utf-8"?>
<!-- Generator: Adobe Illustrator 19.2.1, SVG Export Plug-In . SVG Version: 6.00 Build 0)  -->
<svg version="1.1" id="Layer_1" xmlns="http://www.w3.org/2000/svg" xmlns:xlink="http://www.w3.org/1999/xlink" x="0px" y="0px"
	 viewBox="0 0 24 24" style="enable-background:new 0 0 24 24;" xml:space="preserve">
<path d="M11.9,24c-4.4-0.1-4.3-1.3-4.3-1.3c0-1.2,3.7-1.4,3.7-1.4c0.6-0.5,0.4-3.2,0.4-3.2c0-6.5-0.8-6.8-0.8-6.8
	c-4.3-2.5-3.4-6-3.4-6l0.9-4.9C8.8,0,12,0,12,0H12c0,0,3.2,0,3.5,0.4l0.9,4.9c0,0,1,3.5-3.4,6c0,0-0.8,0.3-0.8,6.8
	c0,0-0.1,2.7,0.4,3.2c0,0,3.7,0.2,3.7,1.4c0,0,0.1,1.3-4.3,1.3H11.9z"/>
</svg>
